#!OML:ASF F:\VICON\USERDATA\INSTALL\rory3\rory3.ASF
:FULLY-SPECIFIED
:DEGREES
106
root -0.13418831286512528 18.016356302197458 7.134523058787767 10.674287412125006 -2.780433270261206 -1.2885570565460998
lfemur -29.958088269394374 8.71991052326782 -18.836628669151818
ltibia 42.88626948425488
lfoot -4.7524587680584744 -3.216508896683017
ltoes -16.575183022110217
rfemur -18.251813986725132 -1.5460937558773287 20.26917759968181
rtibia 20.86164500272492
rfoot -13.813980315493202 -0.7167645135046752
rtoes 5.516482739341016
lowerback 10.331072918843184 0.24047125663644667 -0.8992511701063842
upperback 6.03790218491377 0.3326828731478308 1.2948279777783218
thorax 1.136337197681185 0.13707070175444494 1.148940465901953
lowerneck -14.984700047358384 0.5677669244888297 -1.2799430485536565
upperneck 20.6598047527254 0.8335583084593311 0.6163634427009038
head 8.815418458975234 0.44605439990867224 -0.02650018108841179
lclavicle 5.769822188535397e-16 -3.0905995474691537e-16
lhumerus -19.843541712031435 -3.1063777134589543 84.65497006244371
lradius 21.43724982654624
lwrist 13.500488655711672
lhand -26.091756306274167 -8.030545116279448
lfingers 7.125019999999998
lthumb 1.0481101161806026 22.885847224642863
rclavicle 5.762059105166558e-16 -3.107099202615766e-16
rhumerus -29.208753234345423 -15.237937262722655 -75.46979989805104
rradius 26.141656535291474
rwrist 33.12962003632094
rhand -19.906254872859176 -25.695050393250327
rfingers 7.125019999999998
rthumb 6.053298992233085 -56.28048609496807
107
root -0.1545031231904383 18.01953908376522 7.214259346216959 10.355211016374586 -2.6214315124610916 -1.2138672344101553
lfemur -29.90231498465721 8.583728111379529 -18.886594184941753
ltibia 44.18814499080505
lfoot -4.66739719301824 -3.3954441457600604
ltoes -17.18204471821629
rfemur -18.49410954112241 -1.5406475706644776 20.236482640789866
rtibia 20.540056010736656
rfoot -14.307858707084245 -1.0630677817244858
rtoes 5.074790275598404
lowerback 10.793078904312864 0.22169834973834038 -0.9077687722767999
upperback 6.22963198900705 0.3056674647136998 1.2450947670006345
thorax 0.9960694830090948 0.12065006626293445 1.1019162571920238
lowerneck -15.082577950353414 0.5668699293698902 -1.3298870435304024
upperneck 20.021712770233215 0.8473898211862467 0.4494179618346024
head 8.462982966124533 0.45151214340638446 -0.09902792395954746
lclavicle 5.766352292788905e-16 -3.09633835283905e-16
lhumerus -20.03470949407295 -2.0156030933162743 84.84953952262404
lradius 20.74958564331856
lwrist 12.561698746509046
lhand -25.891817997380755 -7.8046163389372865
lfingers 7.125019999999998
lthumb 1.2748079580245981 23.185771445971902
rclavicle 5.75984369731228e-16 -3.1104503208238887e-16
rhumerus -28.831584972929306 -15.042287422621335 -75.51436090648221
rradius 26.295258435170723
rwrist 33.023960832269346
rhand -19.971978194873916 -25.86131503339689
rfingers 7.125019999999998
rthumb 6.0652641980712705 -56.364177764789595
108
root -0.16929227569122363 18.04830793401165 7.170989585505843 10.177269688084671 -2.318507508605064 -1.2504143631959006
lfemur -29.70911826656112 8.346497151696212 -18.82373728226693
ltibia 45.281383752504965
lfoot -4.958208332121461 -3.7079596986880228
ltoes -16.9619560812976
rfemur -18.501439852709186 -1.534875142793341 20.2971558184588
rtibia 20.074483662136053
rfoot -14.698415419439925 -1.1382501565354475
rtoes 4.6923586615279245
lowerback 11.397109581018906 0.2477830700209526 -0.8416542652821104
upperback 6.44479416122244 0.3401407256255958 1.2448063341158673
thorax 0.7404058135407732 0.1424940536641223 1.0823470837925562
lowerneck -15.174113341543919 0.511257164966359 -1.409708849268764
upperneck 19.40104715787422 0.7980131481578812 0.37960342408886927
head 8.182409856373688 0.42885271531672836 -0.14883494027956673
lclavicle 5.768587789448382e-16 -3.093487970113567e-16
lhumerus -20.149423586057477 -1.2784906500640798 85.02248148376576
lradius 20.18802288696785
lwrist 11.555297687438825
lhand -25.741483431673196 -7.55346215189258
lfingers 7.125019999999998
lthumb 1.4241125259132703 23.391123897468674
rclavicle 5.758823308097654e-16 -3.111960881669186e-16
rhumerus -28.70339850626619 -14.832598901955471 -75.53103539797854
rradius 26.265758922085734
rwrist 32.969533117637525
rhand -20.061497550021624 -26.040426589692085
rfingers 7.125019999999998
rthumb 6.025244538574583 -56.47138972183229
109
root -0.18584004753819283 18.081130088534334 7.031463955322726 10.03210447644084 -2.000800292840863 -1.1566651413270783
lfemur -29.74424286069722 8.175397051047787 -18.868396476220568
ltibia 46.348388863353385
lfoot -5.035104905536001 -4.045192452258816
ltoes -15.988565081409538
rfemur -18.850770350680605 -1.4844274697212794 20.238273118769587
rtibia 19.91909461449991
rfoot -14.88747164032466 -1.1328453250762478
rtoes 4.52175749956752
lowerback 11.973198498125178 0.31544459771128086 -0.8980381147443258
upperback 6.637280344852268 0.4152336787464512 1.2251769133364445
thorax 0.3923604573782885 0.17083201400272466 1.1084025396872819
lowerneck -15.26750067888378 0.42704388362082824 -1.4874976230571932
upperneck 18.6177480112991 0.7029634163092706 0.38270816363720855
head 7.913087748269494 0.3931189915965374 -0.16860714169798524
lclavicle 5.775443952496135e-16 -3.0831957012545277e-16
lhumerus -19.981531132856745 -0.7251637741229504 85.08902927386008
lradius 19.70904897268901
lwrist 10.930599166120578
lhand -25.714870807813742 -7.480778469902355
lfingers 7.125019999999998
lthumb 1.4877035288368408 23.420193466626248
rclavicle 5.764010445084602e-16 -3.1040776037929326e-16
rhumerus -28.49173962510184 -14.55311708175766 -75.57545641052761
rradius 25.962644204525724
rwrist 33.35913478558747
rhand -20.141996935994268 -26.21626698479364
rfingers 7.125019999999998
rthumb 6.024048512026075 -56.56326147137462
110
root -0.2062601264998694 18.093843835781026 6.9504966117212525 10.052792782525232 -1.709049559211059 -1.2525597536534803
lfemur -29.79802078887134 7.974187889515412 -18.768379971069265
ltibia 47.539812644847274
lfoot -4.945274157660537 -4.476056061666571
ltoes -14.878069889660473
rfemur -18.99931735687737 -1.497470608554576 20.398792478393144
rtibia 19.498056479516173
rfoot -14.91490780882855 -1.1570214786790887
rtoes 4.588994625718898
lowerback 12.554401292095335 0.39410678643369434 -0.8685567318259436
upperback 6.780008846376309 0.5332470078163711 1.2390979010659064
thorax 0.1408796605453269 0.22392397871829126 1.102451496667273
lowerneck -15.360413366229574 0.3388647760340727 -1.5493961028345113
upperneck 17.752025171900254 0.5941117434366312 0.3758654243011397
head 7.532039199129482 0.3481218272112593 -0.17657776368701422
lclavicle 5.766339542701746e-16 -3.0970732009549043e-16
lhumerus -19.75191240804375 -0.6161917436100321 85.08900833465728
lradius 19.368126848545796
lwrist 10.334002523767385
lhand -25.823158861364703 -7.354457251199561
lfingers 7.125019999999998
lthumb 1.450525999002374 23.475590038820993
rclavicle 5.757751784329359e-16 -3.113567242294511e-16
rhumerus -28.071341330206725 -14.151992109092465 -75.62738623314665
rradius 25.540478793336398
rwrist 33.80139295558851
rhand -20.241183043050714 -26.341043926925757
rfingers 7.125019999999998
rthumb 5.970361000645397 -56.6399911076405
